# xmcd
#
# Track frame offsets:
#	150
#	26310
#	49483
#	66898
#	83205
#	109558
#	132513
#	148135
#	170508
#	186045
#	204390
#	221695
#	239775
#	256259
#	273365
#	298285
#
# Disc length: 4206 seconds
#
# Revision: 0
# Processed by: cddbd v1.5.2PL0 Copyright (c) Steve Scherf et al.
# Submitted via: EasyCDDAExtractor 16.0.6.1
#
DISCID=fe106c10
DTITLE=Συλλογικός δίσκος - The best disco in town 2
DYEAR=1996
DGENRE=Disco
TTITLE0=Patrick Hernandez - Patrick Hernandez-Born to be alive [1996]
TTITLE1=Gloria Gaynor - Can't take my eyes off you [1996]
TTITLE2=Donna Summer - Hot Stuff [1979]
TTITLE3=Thlema Houston - Don't Leave me this way [1976]
TTITLE4=BT Express - Do it [1996]
TTITLE5=James Brown - Sex machine [1970]
TTITLE6=Rick James - Super Freak [1981]
TTITLE7=Kool and the Gang - Celebration [1980]
TTITLE8=Odyssey - Going back to my roots [1996]
TTITLE9=Brothers Johnson - Stomp [1980]
TTITLE10=Hamilton Bohannon - Lets start the dance [1996]
TTITLE11=Edwin Starr - Contact [1996]
TTITLE12=Grace Jones - Pull up to the bumber [1996]
TTITLE13=Donna Summer - I feel love [1977]
TTITLE14=Gap Band - Burn Rubber [1996]
TTITLE15=Patrick Juvet - I love America [1996]
EXTD=THE BEST DISCO IN TOWN\n
EXTT0=
EXTT1=
EXTT2=
EXTT3=
EXTT4=
EXTT5=
EXTT6=
EXTT7=
EXTT8=
EXTT9=
EXTT10=
EXTT11=
EXTT12=
EXTT13=
EXTT14=
EXTT15=
PLAYORDER=
